<mxfile host="app.diagrams.net" modified="2022-07-09T14:47:02.358Z" agent="5.0 (X11; Linux x86_64) AppleWebKit/537.36 (KHTML, like Gecko) Chrome/103.0.5060.114 Safari/537.36" etag="3lqB5fV5Dad-ARHDjB1f" version="20.0.4" type="github">
  <diagram id="C5RBs43oDa-KdzZeNtuy" name="Page-1">
    <mxGraphModel dx="1348" dy="809" grid="1" gridSize="10" guides="1" tooltips="1" connect="1" arrows="1" fold="1" page="1" pageScale="1" pageWidth="827" pageHeight="1169" math="0" shadow="0">
      <root>
        <mxCell id="WIyWlLk6GJQsqaUBKTNV-0" />
        <mxCell id="WIyWlLk6GJQsqaUBKTNV-1" parent="WIyWlLk6GJQsqaUBKTNV-0" />
        <mxCell id="_FG5EnAWJj7fRXJt9dqC-1" value="" style="endArrow=classic;html=1;rounded=0;exitX=0.5;exitY=1;exitDx=0;exitDy=0;" edge="1" parent="WIyWlLk6GJQsqaUBKTNV-1">
          <mxGeometry width="50" height="50" relative="1" as="geometry">
            <mxPoint x="111" y="130" as="sourcePoint" />
            <mxPoint x="111" y="170" as="targetPoint" />
          </mxGeometry>
        </mxCell>
        <mxCell id="_FG5EnAWJj7fRXJt9dqC-2" value="" style="endArrow=classic;html=1;rounded=0;exitX=0.483;exitY=1;exitDx=0;exitDy=0;exitPerimeter=0;entryX=0.5;entryY=0;entryDx=0;entryDy=0;" edge="1" parent="WIyWlLk6GJQsqaUBKTNV-1" source="_FG5EnAWJj7fRXJt9dqC-5" target="_FG5EnAWJj7fRXJt9dqC-6">
          <mxGeometry width="50" height="50" relative="1" as="geometry">
            <mxPoint x="111" y="230" as="sourcePoint" />
            <mxPoint x="111" y="280" as="targetPoint" />
          </mxGeometry>
        </mxCell>
        <mxCell id="_FG5EnAWJj7fRXJt9dqC-5" value="Create GitHub Repo" style="rounded=0;whiteSpace=wrap;html=1;fillColor=#e1d5e7;strokeColor=#9673a6;" vertex="1" parent="WIyWlLk6GJQsqaUBKTNV-1">
          <mxGeometry x="41" y="160" width="145" height="60" as="geometry" />
        </mxCell>
        <mxCell id="_FG5EnAWJj7fRXJt9dqC-8" value="" style="edgeStyle=orthogonalEdgeStyle;rounded=0;orthogonalLoop=1;jettySize=auto;html=1;" edge="1" parent="WIyWlLk6GJQsqaUBKTNV-1" source="_FG5EnAWJj7fRXJt9dqC-6" target="_FG5EnAWJj7fRXJt9dqC-7">
          <mxGeometry relative="1" as="geometry" />
        </mxCell>
        <mxCell id="_FG5EnAWJj7fRXJt9dqC-6" value="Discuss project objectives and outcomes" style="rounded=0;whiteSpace=wrap;html=1;fillColor=#e1d5e7;strokeColor=#9673a6;" vertex="1" parent="WIyWlLk6GJQsqaUBKTNV-1">
          <mxGeometry x="36" y="250" width="150" height="60" as="geometry" />
        </mxCell>
        <mxCell id="_FG5EnAWJj7fRXJt9dqC-10" value="" style="edgeStyle=orthogonalEdgeStyle;rounded=0;orthogonalLoop=1;jettySize=auto;html=1;" edge="1" parent="WIyWlLk6GJQsqaUBKTNV-1" source="_FG5EnAWJj7fRXJt9dqC-7" target="_FG5EnAWJj7fRXJt9dqC-9">
          <mxGeometry relative="1" as="geometry" />
        </mxCell>
        <mxCell id="_FG5EnAWJj7fRXJt9dqC-7" value="Plan project structure&amp;nbsp;" style="rounded=0;whiteSpace=wrap;html=1;fillColor=#e1d5e7;strokeColor=#9673a6;" vertex="1" parent="WIyWlLk6GJQsqaUBKTNV-1">
          <mxGeometry x="26" y="350" width="170" height="60" as="geometry" />
        </mxCell>
        <mxCell id="_FG5EnAWJj7fRXJt9dqC-14" value="" style="edgeStyle=orthogonalEdgeStyle;rounded=0;orthogonalLoop=1;jettySize=auto;html=1;" edge="1" parent="WIyWlLk6GJQsqaUBKTNV-1" source="_FG5EnAWJj7fRXJt9dqC-9" target="_FG5EnAWJj7fRXJt9dqC-13">
          <mxGeometry relative="1" as="geometry" />
        </mxCell>
        <mxCell id="_FG5EnAWJj7fRXJt9dqC-9" value="Start coding" style="whiteSpace=wrap;html=1;rounded=0;fillColor=#e1d5e7;strokeColor=#9673a6;" vertex="1" parent="WIyWlLk6GJQsqaUBKTNV-1">
          <mxGeometry x="26" y="460" width="170" height="60" as="geometry" />
        </mxCell>
        <mxCell id="_FG5EnAWJj7fRXJt9dqC-16" value="" style="edgeStyle=orthogonalEdgeStyle;rounded=0;orthogonalLoop=1;jettySize=auto;html=1;" edge="1" parent="WIyWlLk6GJQsqaUBKTNV-1" source="_FG5EnAWJj7fRXJt9dqC-13" target="_FG5EnAWJj7fRXJt9dqC-15">
          <mxGeometry relative="1" as="geometry" />
        </mxCell>
        <mxCell id="_FG5EnAWJj7fRXJt9dqC-13" value="Start&amp;nbsp; testing" style="whiteSpace=wrap;html=1;fillColor=#e1d5e7;strokeColor=#9673a6;rounded=0;" vertex="1" parent="WIyWlLk6GJQsqaUBKTNV-1">
          <mxGeometry x="21" y="570" width="180" height="60" as="geometry" />
        </mxCell>
        <mxCell id="_FG5EnAWJj7fRXJt9dqC-20" value="" style="edgeStyle=orthogonalEdgeStyle;rounded=0;orthogonalLoop=1;jettySize=auto;html=1;" edge="1" parent="WIyWlLk6GJQsqaUBKTNV-1" source="_FG5EnAWJj7fRXJt9dqC-15" target="_FG5EnAWJj7fRXJt9dqC-19">
          <mxGeometry relative="1" as="geometry" />
        </mxCell>
        <mxCell id="_FG5EnAWJj7fRXJt9dqC-15" value="Git commit and pushing" style="rounded=0;whiteSpace=wrap;html=1;fillColor=#e1d5e7;strokeColor=#9673a6;" vertex="1" parent="WIyWlLk6GJQsqaUBKTNV-1">
          <mxGeometry x="21" y="680" width="180" height="60" as="geometry" />
        </mxCell>
        <mxCell id="_FG5EnAWJj7fRXJt9dqC-25" value="" style="edgeStyle=orthogonalEdgeStyle;rounded=0;orthogonalLoop=1;jettySize=auto;html=1;" edge="1" parent="WIyWlLk6GJQsqaUBKTNV-1" source="_FG5EnAWJj7fRXJt9dqC-19" target="_FG5EnAWJj7fRXJt9dqC-24">
          <mxGeometry relative="1" as="geometry" />
        </mxCell>
        <mxCell id="_FG5EnAWJj7fRXJt9dqC-19" value="Check against ALX checker" style="whiteSpace=wrap;html=1;fillColor=#e1d5e7;strokeColor=#9673a6;rounded=0;" vertex="1" parent="WIyWlLk6GJQsqaUBKTNV-1">
          <mxGeometry x="21" y="800" width="180" height="60" as="geometry" />
        </mxCell>
        <mxCell id="_FG5EnAWJj7fRXJt9dqC-23" value="Start: 9/07/2022" style="ellipse;whiteSpace=wrap;html=1;fillColor=#f8cecc;strokeColor=#b85450;" vertex="1" parent="WIyWlLk6GJQsqaUBKTNV-1">
          <mxGeometry x="51" y="50" width="120" height="80" as="geometry" />
        </mxCell>
        <mxCell id="_FG5EnAWJj7fRXJt9dqC-24" value="End" style="ellipse;whiteSpace=wrap;html=1;fillColor=#e1d5e7;strokeColor=#9673a6;rounded=0;" vertex="1" parent="WIyWlLk6GJQsqaUBKTNV-1">
          <mxGeometry x="51" y="940" width="120" height="60" as="geometry" />
        </mxCell>
      </root>
    </mxGraphModel>
  </diagram>
</mxfile>
